<?xml version="1.0" standalone="no"?>
<!DOCTYPE svg PUBLIC "-//W3C//DTD SVG 1.1//EN" "http://www.w3.org/Graphics/SVG/1.1/DTD/svg11.dtd" >
<svg xmlns="http://www.w3.org/2000/svg">
<metadata>
This is a custom SVG webfont generated by Font Squirrel.
Copyright   : Copyright 1999 by Martin Wenzel published by FontShop International for the FontFont library Profile is a trademark of FSI Fonts and Software GmbH httpwwwfontfontde 
</metadata>
<defs>
<font id="ProfileLightRegular" horiz-adv-x="925" >
<font-face units-per-em="2048" ascent="1638" descent="-410" />
<missing-glyph horiz-adv-x="430" />
<glyph unicode=" "  horiz-adv-x="430" />
<glyph unicode="&#x09;" horiz-adv-x="430" />
<glyph unicode="&#xa0;" horiz-adv-x="430" />
<glyph unicode="!" horiz-adv-x="462" d="M145 92q0 45 31 75t74 30t72.5 -30t29.5 -75t-29.5 -74.5t-72.5 -29.5t-74 29.5t-31 74.5zM168 1233h162l-27 -905h-108z" />
<glyph unicode="&#x22;" horiz-adv-x="655" d="M106 827v406h175l-72 -406h-103zM383 827v406h174l-72 -406h-102z" />
<glyph unicode="#" horiz-adv-x="1185" d="M102 307v90l217 19v434h-217v90l215 18l17 275h98v-279h318l18 279h98v-279h217v-90l-217 -16v-436h217v-90l-215 -17l-18 -305h-96v307h-318l-18 -307h-99v307h-217zM432 412h322v438h-322v-438z" />
<glyph unicode="$" horiz-adv-x="911" d="M98 936q0 129 86 212t222 101v133h118v-127q117 -6 240 -53l-45 -117q-145 55 -227 56q-113 0 -189 -49.5t-76 -151.5q0 -68 35 -108.5t103 -75.5l213 -107q125 -63 185 -134t60 -183q0 -137 -79.5 -231.5t-219.5 -116.5v-148h-118v141q-143 6 -289 64l41 121 q150 -66 270 -66q268 0 268 217q0 74 -47 122t-137 93l-205 103q-104 53 -156.5 120.5t-52.5 184.5z" />
<glyph unicode="%" horiz-adv-x="1703" d="M102 944q0 133 91.5 222t224.5 89t224 -89t91 -222t-91 -224t-224 -91t-224.5 91t-91.5 224zM231 944q0 -84 52.5 -138t134.5 -54t133 54t51 138t-51 135t-133 51t-134.5 -51t-52.5 -135zM471 16l662 1252l104 -54l-662 -1251zM971 291q0 133 91 222t224 89t224.5 -89 t91.5 -222t-91.5 -223.5t-224.5 -90.5t-224 90.5t-91 223.5zM1100 293q0 -84 52 -138.5t134 -54.5t134.5 54.5t52.5 138.5t-52.5 135t-134.5 51t-134 -51t-52 -135z" />
<glyph unicode="&#x26;" horiz-adv-x="1312" d="M145 276q0 111 50.5 186t164.5 171q-152 147 -151 307q0 145 85 228t214 83q111 0 179.5 -66.5t68.5 -176.5q0 -119 -49.5 -193t-169.5 -174l317 -268q29 84 43 278h317v-108h-219q-6 -113 -55 -244l287 -240l-80 -94l-264 219q-133 -207 -402 -207q-150 0 -243 81 t-93 218zM270 299q0 -96 63.5 -155.5t168.5 -59.5q186 0 297 172l-344 291l-17 14q-168 -125 -168 -262zM330 952q0 -68 26.5 -123t100.5 -124q100 82 141 140t41 148q0 63 -38 107.5t-103 44.5q-78 0 -123 -49.5t-45 -143.5z" />
<glyph unicode="'" horiz-adv-x="378" d="M106 827v406h175l-72 -406h-103z" />
<glyph unicode="(" horiz-adv-x="509" d="M133 526q0 580 299 981l88 -51q-258 -403 -258 -930q0 -528 258 -932l-88 -51q-299 401 -299 983z" />
<glyph unicode=")" horiz-adv-x="509" d="M-10 -406q258 403 258 932q0 526 -258 930l90 51q297 -399 297 -981q0 -584 -297 -983z" />
<glyph unicode="*" horiz-adv-x="886" d="M31 891l39 117l323 -111l2 2l-12 334h123l-14 -334l2 -2l323 111l39 -117l-336 -82l-2 -2l219 -285l-98 -71l-195 301h-4l-192 -301l-98 71l219 285l-2 2z" />
<glyph unicode="+" d="M55 543v112h351v351h112v-351h352v-112h-352v-350h-112v350h-351z" />
<glyph unicode="," horiz-adv-x="458" d="M125 92q0 45 29.5 75t72.5 30q45 0 76 -34t31 -89q0 -205 -170 -305l-39 55q80 57 92 164q-39 4 -65.5 34.5t-26.5 69.5z" />
<glyph unicode="-" horiz-adv-x="636" d="M92 539v114h453v-114h-453z" />
<glyph unicode="." horiz-adv-x="458" d="M125 92q0 43 30.5 74t73.5 31t74 -31t31 -74t-31 -73.5t-74 -30.5t-73.5 30.5t-30.5 73.5z" />
<glyph unicode="/" horiz-adv-x="757" d="M-35 -342l647 1778l115 -41l-647 -1778z" />
<glyph unicode="0" horiz-adv-x="1052" d="M117 522.5q0 106.5 21.5 199.5t67.5 173t128 126t192.5 46t192.5 -46t128 -126t67.5 -173t21.5 -199.5t-21.5 -200t-67.5 -173t-128 -126t-192.5 -46.5t-192.5 46.5t-128 126t-67.5 173t-21.5 200zM254 522.5q0 -190.5 68.5 -310.5t204 -120t204 120t68.5 310.5 t-68.5 310t-204 119.5t-204 -119.5t-68.5 -310z" />
<glyph unicode="1" horiz-adv-x="571" d="M76 1012l323 51v-1063h-129v930l-180 -23z" />
<glyph unicode="2" horiz-adv-x="894" d="M86 0v90l358 346q66 63 95.5 95t56.5 85.5t27 110.5q0 100 -59.5 162.5t-170.5 62.5q-106 0 -215 -86l-63 86q137 115 305 115q152 0 244 -87t92 -243q0 -172 -191 -348l-291 -270v-2h560v-117h-748z" />
<glyph unicode="3" horiz-adv-x="841" d="M74 969q133 98 305 98q141 0 223 -83t82 -222q0 -236 -238 -348v-2q152 -31 225.5 -122t73.5 -216q0 -184 -110.5 -290t-308.5 -106q-96 0 -232 31l31 125q111 -35 201 -35q135 0 210.5 64.5t75.5 185.5q0 156 -127 227.5t-335 71.5v94q221 14 311 102.5t90 207.5 q0 96 -53.5 147t-147.5 51q-102 0 -223 -73z" />
<glyph unicode="4" horiz-adv-x="1030" d="M61 135v117l570 792h125v-792h252v-117h-252v-426l-125 -24v450h-570zM205 252h426v602h-2z" />
<glyph unicode="5" horiz-adv-x="860" d="M119 440l49 604h563v-120h-448l-31 -379q51 4 94 4q182 0 299 -97.5t117 -275.5q0 -115 -43 -207t-108.5 -146t-152.5 -91t-163 -52.5t-154 -19.5l-12 113q84 8 160 28.5t157.5 60.5t131 115.5t49.5 176.5q0 141 -84 213.5t-281 72.5h-143z" />
<glyph unicode="6" horiz-adv-x="946" d="M125 459q0 205 56.5 362.5t152.5 250.5t212 143.5t249 58.5l14 -111q-207 -20 -360.5 -150t-188.5 -388l2 -2q12 10 34.5 27.5t90.5 45t133 27.5q160 0 249 -94t89 -258q0 -180 -99.5 -287t-266.5 -107q-367 1 -367 482zM260 473q0 -190 56.5 -288.5t187.5 -98.5 q109 0 165 69.5t56 184.5q0 143 -58.5 205.5t-183.5 62.5q-57 0 -112.5 -23.5t-83.5 -47.5l-27 -23v-41z" />
<glyph unicode="7" horiz-adv-x="831" d="M61 924v120h709v-120l-584 -1260l-110 57l553 1203h-568z" />
<glyph unicode="8" d="M111 283q0 88 44 164.5t89 116.5t114 87q-115 78 -165 143.5t-50 174.5q0 125 90.5 205.5t229.5 80.5q145 0 232 -76.5t87 -201.5q0 -102 -58 -177t-157 -141q127 -84 187.5 -161.5t60.5 -208.5q0 -145 -98.5 -228.5t-253.5 -83.5q-158 0 -255 80.5t-97 225.5zM242 299 q0 -96 59 -151.5t162 -55.5q106 0 162.5 55.5t56.5 143.5q0 100 -54.5 162.5t-172.5 140.5q-111 -72 -162 -132.5t-51 -162.5zM262 961q0 -72 47 -121t162 -125q190 121 191 246q0 84 -54.5 136t-144.5 52t-145.5 -53t-55.5 -135z" />
<glyph unicode="9" horiz-adv-x="956" d="M88 666q0 190 101.5 295.5t277.5 105.5q365 0 364 -539q0 -414 -188 -629.5t-500 -238.5l-18 111q225 23 382 173t183 449l-2 2q-12 -10 -33.5 -25.5t-89 -40t-135.5 -24.5q-154 0 -248 100.5t-94 260.5zM223 690q0 -272 246 -272q135 2 221 84v26q0 90 -9 158 t-33.5 132.5t-75 99t-126.5 34.5q-104 0 -163.5 -74.5t-59.5 -187.5z" />
<glyph unicode=":" horiz-adv-x="458" d="M125 92q0 43 30.5 74t73.5 31t74 -31t31 -74t-31 -73.5t-74 -30.5t-73.5 30.5t-30.5 73.5zM125 866q0 43 30.5 74t73.5 31t74 -31t31 -74t-31 -73.5t-74 -30.5t-73.5 30.5t-30.5 73.5z" />
<glyph unicode=";" horiz-adv-x="458" d="M125 92q0 45 29.5 75t72.5 30q45 0 76 -34t31 -89q0 -205 -170 -305l-39 55q80 57 92 164q-39 4 -65.5 34.5t-26.5 69.5zM125 866q0 43 30.5 74t73.5 31t74 -31t31 -74t-31 -73.5t-74 -30.5t-73.5 30.5t-30.5 73.5z" />
<glyph unicode="&#x3c;" d="M51 598l715 414l57 -107l-544 -307v-2l544 -303l-57 -107z" />
<glyph unicode="=" d="M55 422v113h815v-113h-815zM55 659v113h815v-113h-815z" />
<glyph unicode="&#x3e;" d="M102 291l545 307v2l-545 303l58 107l714 -412l-714 -414z" />
<glyph unicode="?" horiz-adv-x="727" d="M55 1143q135 115 303 114q147 0 240.5 -83.5t93.5 -231.5q0 -86 -41 -147.5t-98 -97t-114.5 -65.5t-98.5 -69t-41 -90q0 -31 10 -61.5t21 -46.5l10 -15l-104 -47q-63 86 -64 189q0 70 40 121t96.5 81.5t111.5 59t95 71.5t40 103q0 100 -59.5 155.5t-159.5 55.5 q-106 0 -223 -84zM190 92q0 45 31 75t74 30t72.5 -30t29.5 -75t-29.5 -74.5t-72.5 -29.5t-74 29.5t-31 74.5z" />
<glyph unicode="@" horiz-adv-x="1753" d="M111 281q0 319 186 507.5t498 188.5q178 0 271 -82t93 -225v-459l29 -203l-133 -24l-17 114h-2q-131 -123 -264 -123q-121 0 -188.5 67t-67.5 179q0 236 328 271l186 20v102q0 256 -246 256q-248 0 -405.5 -161.5t-157.5 -427.5q0 -262 152.5 -439.5t437.5 -177.5 q348 0 524 197.5t176 558.5q0 274 -184 504l94 73q94 -109 149.5 -260t55.5 -313q0 -399 -213 -629.5t-608 -230.5q-334 0 -514 201t-180 516zM647 236q0 -66 39 -105t105 -39q121 0 239 103v219l-172 -23q-106 -14 -158.5 -49.5t-52.5 -105.5z" />
<glyph unicode="A" horiz-adv-x="1071" d="M47 0l434 1233h140l405 -1217l-135 -39l-141 443h-420l-135 -420h-148zM362 522h355l-172 561h-2z" />
<glyph unicode="B" horiz-adv-x="1011" d="M180 0v1225q150 18 305 18q166 0 262.5 -69.5t96.5 -212.5q0 -104 -56.5 -182.5t-146.5 -121.5v-2q127 -12 212 -85.5t85 -194.5q0 -199 -141.5 -287t-370.5 -88h-246zM315 113h160q147 0 238.5 56t91.5 171q0 240 -356 240h-134v-467zM315 674q395 10 396 256 q0 213 -269 213l-127 -6v-463z" />
<glyph unicode="C" horiz-adv-x="1052" d="M106 588q0 317 163 492t415 175q172 0 315 -61l-53 -123q-137 61 -266 62q-180 0 -307 -134.5t-127 -363.5q0 -272 106.5 -404.5t343.5 -132.5q100 0 262 70l46 -111q-156 -80 -373 -80q-231 0 -378 157t-147 454z" />
<glyph unicode="D" horiz-adv-x="1232" d="M180 0v1225q166 20 340 20q285 0 445.5 -146.5t160.5 -404.5q0 -336 -184 -515t-516 -179h-246zM315 123h136q242 0 387 142.5t145 404.5q0 223 -137 340.5t-363 117.5l-168 -6v-999z" />
<glyph unicode="E" horiz-adv-x="876" d="M180 0v1233h596v-117h-461v-418h418v-116h-418v-465h480v-117h-615z" />
<glyph unicode="F" horiz-adv-x="817" d="M180 0v1233h596v-117h-461v-438h418v-117h-418v-561h-135z" />
<glyph unicode="G" horiz-adv-x="1179" d="M106 592q0 315 181.5 489t449.5 174q176 0 320 -61l-49 -127q-152 63 -275 63q-205 0 -344 -131t-139 -364q0 -268 110.5 -401.5t352.5 -133.5q41 0 90 7.5t78 13.5l28 6v471h135v-559q-145 -61 -407 -62q-236 0 -383.5 161t-147.5 454z" />
<glyph unicode="H" horiz-adv-x="1232" d="M180 0v1233h135v-535h603v535h135v-1233h-135v582h-603v-582h-135z" />
<glyph unicode="I" horiz-adv-x="495" d="M180 0v1233h135v-1233h-135z" />
<glyph unicode="J" horiz-adv-x="524" d="M-33 -217q145 70 193.5 156t48.5 262v1032h135v-1032q0 -209 -77 -332t-247 -193z" />
<glyph unicode="K" horiz-adv-x="1058" d="M180 0v1233h135v-1233h-135zM319 639l515 594h163l-510 -584l539 -610l-100 -88z" />
<glyph unicode="L" horiz-adv-x="813" d="M180 0v1233h135v-1116h486v-117h-621z" />
<glyph unicode="M" horiz-adv-x="1568" d="M154 0l77 1233h140l420 -1081h2l426 1081h137l59 -1231l-131 -8l-39 1001h-2l-393 -995h-150l-370 993h-2l-56 -993h-118z" />
<glyph unicode="N" horiz-adv-x="1239" d="M180 0v1233h164l594 -1022h2l-10 1022h129v-1223l-148 -26l-610 1056h-2l10 -1040h-129z" />
<glyph unicode="O" horiz-adv-x="1314" d="M106 616q0 129 31 240t93.5 202t173 144t255.5 53q150 0 259.5 -52t171 -143t90 -201.5t28.5 -242.5q0 -129 -29.5 -239.5t-92 -201.5t-172 -144.5t-255.5 -53.5q-150 0 -259 52.5t-171.5 143.5t-92.5 201.5t-30 241.5zM254 616q0 -246 100.5 -384t304.5 -138 q199 0 301.5 141.5t102.5 380.5q0 246 -99.5 384.5t-304.5 138.5q-199 0 -302 -141.5t-103 -381.5z" />
<glyph unicode="P" d="M180 0v1223q150 23 309 22q168 0 271.5 -82t103.5 -225q0 -209 -146.5 -319.5t-367.5 -110.5h-35v-508h-135zM315 616h31q164 0 273.5 73t109.5 216q0 119 -73.5 177.5t-204.5 58.5l-136 -8v-517z" />
<glyph unicode="Q" horiz-adv-x="1314" d="M106 616q0 129 31 240t93.5 202t173 144t255.5 53q150 0 259.5 -52t171 -143t90 -201.5t28.5 -242.5q0 -129 -29.5 -239.5t-92 -201.5t-172 -144.5t-255.5 -53.5q-150 0 -259 52.5t-171.5 143.5t-92.5 201.5t-30 241.5zM254 616q0 -246 100.5 -384t304.5 -138 q199 0 301.5 141.5t102.5 380.5q0 246 -99.5 384.5t-304.5 138.5q-199 0 -302 -141.5t-103 -381.5zM639 -176l14 108l617 -45l-19 -118z" />
<glyph unicode="R" horiz-adv-x="983" d="M180 0v1223q150 23 309 22q166 0 265.5 -81t99.5 -218q0 -145 -74.5 -239.5t-201.5 -139.5l352 -540l-119 -64l-365 574q-49 -6 -96 -7h-35v-530h-135zM315 639h31q154 0 263.5 67.5t109.5 208.5q0 113 -72 169.5t-196 56.5l-136 -8v-494z" />
<glyph unicode="S" horiz-adv-x="911" d="M98 936q0 147 110.5 233t274.5 86q137 0 281 -53l-45 -117q-145 55 -227 56q-113 0 -189 -49.5t-76 -151.5q0 -68 35 -108.5t103 -75.5l213 -107q125 -63 184 -134t59 -183q0 -160 -103.5 -257.5t-281.5 -97.5q-166 0 -321 64l41 121q150 -66 270 -66q268 0 268 217 q0 74 -46 122t-136 93l-205 103q-104 53 -156.5 120.5t-52.5 184.5z" />
<glyph unicode="T" horiz-adv-x="858" d="M12 1116v117h834v-117h-350v-1116h-136v1116h-348z" />
<glyph unicode="U" horiz-adv-x="1265" d="M176 500v733h141v-746q0 -385 306 -385q160 0 249 96.5t89 288.5v746h129v-737q0 -256 -128 -388.5t-331 -132.5q-455 1 -455 525z" />
<glyph unicode="V" horiz-adv-x="1019" d="M49 1217l139 43l320 -1074h2l317 1047h148l-391 -1233h-150z" />
<glyph unicode="W" horiz-adv-x="1542" d="M80 1227l139 22l193 -1009h2l291 993h141l303 -993h2l178 993h123l-233 -1233h-129l-318 1034h-2l-311 -1034h-137z" />
<glyph unicode="X" horiz-adv-x="1058" d="M12 0l441 643l-387 559l116 68l348 -514h2l318 477h149l-397 -580l436 -622l-120 -62l-394 572h-2l-360 -541h-150z" />
<glyph unicode="Y" horiz-adv-x="923" d="M12 1210l121 60l324 -608h2l311 571h141l-389 -707v-526h-135v514z" />
<glyph unicode="Z" horiz-adv-x="1067" d="M82 0v113l713 1003v2h-662v115h823v-111l-698 -1005v-2h735v-115h-911z" />
<glyph unicode="[" horiz-adv-x="495" d="M164 -420v1890h301v-108h-176v-1675h176v-107h-301z" />
<glyph unicode="\" horiz-adv-x="757" d="M31 1395l114 41l648 -1778l-115 -41z" />
<glyph unicode="]" horiz-adv-x="495" d="M31 -313h178v1675h-178v108h301v-1890h-301v107z" />
<glyph unicode="^" horiz-adv-x="817" d="M74 784l336 476l333 -476l-92 -61l-243 324h-2l-240 -324z" />
<glyph unicode="_" d="M55 -61h815v-113h-815v113z" />
<glyph unicode="`" horiz-adv-x="1013" d="M256 1260l61 106l347 -211l-54 -90z" />
<glyph unicode="a" d="M106 221q0 236 328 271l187 20v94q0 121 -46.5 184.5t-164.5 63.5q-78 0 -205 -55l-47 100q135 78 282 78q137 0 223.5 -79t86.5 -214v-473l28 -203l-133 -24l-16 114h-2q-131 -123 -265 -123q-121 0 -188.5 66.5t-67.5 179.5zM238 236q0 -66 38.5 -105t104.5 -39 q121 0 240 103v219l-172 -23q-106 -14 -158.5 -49.5t-52.5 -105.5z" />
<glyph unicode="b" horiz-adv-x="1017" d="M143 1374l158 25v-525h2q123 102 262 103q168 0 257 -116t89 -329q0 -246 -119.5 -400.5t-336.5 -154.5q-168 0 -283 46v1148zM301 111q72 -18 162 -19q150 0 232.5 109.5t82.5 271.5q0 184 -56 282.5t-202 98.5q-117 0 -219 -86v-657z" />
<glyph unicode="c" horiz-adv-x="837" d="M106 463q0 250 128 382t323 132q117 0 217 -39l-43 -121q-100 39 -184 39q-145 0 -227 -99.5t-82 -262.5q0 -403 309 -404q68 0 170 47l47 -106q-109 -53 -250 -54q-197 0 -302.5 131.5t-105.5 354.5z" />
<glyph unicode="d" horiz-adv-x="1013" d="M106 430q0 248 119 392.5t336 144.5q39 0 76 -4.5t55 -8.5l17 -4v221l-29 203l158 25v-1194l28 -201l-127 -20l-16 96h-2q-123 -102 -264 -103q-156 0 -253.5 121t-97.5 332zM244 487q0 -195 60.5 -295t201.5 -100q102 0 203 82v651q-59 31 -164 31q-147 0 -224 -106.5 t-77 -262.5z" />
<glyph unicode="e" horiz-adv-x="901" d="M106 479q0 225 104.5 361.5t283.5 136.5q158 0 235.5 -92t77.5 -252v-117h-571q0 -215 76.5 -317.5t244.5 -102.5q98 0 209 58l49 -105q-125 -72 -293 -72q-199 0 -307.5 132t-108.5 370zM244 618h436q0 254 -195 254q-96 0 -159.5 -68.5t-81.5 -185.5z" />
<glyph unicode="f" horiz-adv-x="618" d="M49 844v90l139 24v111q0 152 87 239t229 87q45 0 110 -17l-28 -110q-49 16 -101 16q-76 0 -122 -50t-46 -142v-138h271v-108h-271v-846h-129v844h-139z" />
<glyph unicode="g" horiz-adv-x="995" d="M80 -170q0 70 32.5 129t65.5 86l33 25q-66 43 -66 129q0 55 31 102t62 68l30 18q-141 82 -141 275q0 145 95 232t239 87q115 0 194 -49l283 45v-131h-195q49 -78 50 -184q0 -147 -94.5 -234.5t-237.5 -87.5q-53 0 -111 14q-8 -4 -20.5 -13t-34 -41t-21.5 -69 q0 -84 125 -84h267q133 0 200.5 -43t67.5 -151q0 -152 -149.5 -271.5t-391.5 -119.5q-143 0 -228 71.5t-85 196.5zM203 -141q0 -184 229 -185q176 0 280.5 86t104.5 181q0 55 -45 73.5t-139 18.5h-264q-41 0 -78 6q-10 -8 -24.5 -22.5t-39 -61.5t-24.5 -96zM254 662 q0 -109 56.5 -165.5t150.5 -56.5q90 0 147.5 59.5t57.5 162.5q0 109 -55.5 165t-149.5 56q-90 0 -148.5 -59.5t-58.5 -161.5z" />
<glyph unicode="h" horiz-adv-x="1038" d="M143 1374l158 25v-535h2q129 113 277 113q125 0 205.5 -78t80.5 -217v-682h-129v627q0 117 -48 174t-154 57q-121 0 -234 -98v-760h-129v1171z" />
<glyph unicode="i" horiz-adv-x="485" d="M143 1198q0 43 30 72.5t73 29.5q41 0 70.5 -29.5t29.5 -72.5t-29.5 -72.5t-70.5 -29.5q-43 0 -73 29.5t-30 72.5zM152 946l157 25v-971h-129v743z" />
<glyph unicode="j" horiz-adv-x="485" d="M-39 -344q129 78 176 171t47 271v645l-28 203l157 25v-916q0 -358 -290 -493zM147 1198q0 43 30 72.5t73 29.5q41 0 70.5 -29.5t29.5 -72.5t-29.5 -72.5t-70.5 -29.5q-43 0 -73 29.5t-30 72.5z" />
<glyph unicode="k" horiz-adv-x="917" d="M143 1374l158 25v-1399h-129v1171zM305 528l357 426h153l-352 -417l426 -512l-125 -54z" />
<glyph unicode="l" horiz-adv-x="473" d="M143 1374l158 25v-1399h-129v1171z" />
<glyph unicode="m" horiz-adv-x="1607" d="M147 946l134 25l16 -115h2q125 121 285 121q176 0 252 -141h2q137 141 311 141q125 0 206 -79t81 -218v-680h-129v625q0 236 -201 235q-135 0 -242 -106q6 -35 6 -74v-680h-129v625q0 236 -200 235q-121 0 -236 -100v-760h-129v743z" />
<glyph unicode="n" horiz-adv-x="1042" d="M147 946l134 25l16 -115h2q125 121 285 121q125 0 205.5 -79t80.5 -218v-680h-129v625q0 236 -200 235q-121 0 -236 -100v-760h-129v743z" />
<glyph unicode="o" horiz-adv-x="1013" d="M106 477q0 219 102.5 359.5t299.5 140.5q399 0 399 -500q0 -219 -102.5 -359.5t-296.5 -140.5q-402 0 -402 500zM244 483q0 -391 264 -391q262 0 262 379q0 391 -262 391q-264 0 -264 -379z" />
<glyph unicode="p" horiz-adv-x="1009" d="M147 946l134 25l14 -99h2q125 104 262 105q168 0 256 -120t88 -333q0 -244 -107.5 -390t-336.5 -146q-92 0 -154 18v-414l-129 -24v1175zM305 131q74 -31 168 -31q139 0 219 102.5t80 272.5q0 184 -56.5 282.5t-201.5 98.5q-106 0 -209 -80v-645z" />
<glyph unicode="q" horiz-adv-x="1015" d="M106 438q0 268 130.5 402.5t330.5 134.5q152 0 277 -47v-1336l-129 -24v510h-2q-117 -100 -262 -101q-158 0 -251.5 123t-93.5 338zM244 498q0 -225 59 -315.5t193 -90.5q111 0 219 94v656q-80 20 -160 20q-129 0 -220 -100t-91 -264z" />
<glyph unicode="r" horiz-adv-x="614" d="M147 946l134 25l16 -129h2q123 133 274 133v-137q-158 0 -268 -97v-741h-129v743z" />
<glyph unicode="s" horiz-adv-x="808" d="M104 721q0 125 93.5 190.5t226.5 65.5q135 0 252 -49l-47 -119q-113 49 -207 49q-188 0 -189 -129q0 -80 107 -131l192 -92q176 -86 177 -238q0 -129 -91.5 -208.5t-238.5 -79.5q-158 0 -264 49l43 118q117 -53 215 -53q92 0 146 38t54 114q0 53 -25.5 81.5t-82.5 57.5 l-186 88q-31 14 -51.5 26.5t-54.5 42t-51.5 75t-17.5 104.5z" />
<glyph unicode="t" horiz-adv-x="675" d="M49 846v88l139 24v158l129 19v-181h269v-108h-269v-576q0 -96 29 -134t103 -38q55 0 118 39l47 -100q-98 -55 -200 -55q-100 0 -163 62t-63 175v627h-139z" />
<glyph unicode="u" horiz-adv-x="1046" d="M147 946l158 25v-641q0 -236 201 -236q121 0 235 101v548l-28 203l157 25v-760l29 -203l-133 -24l-16 114h-2q-125 -121 -285 -121q-125 0 -206 79t-81 218v469z" />
<glyph unicode="v" horiz-adv-x="866" d="M35 946l131 35l254 -803h2l266 776h133l-342 -954h-129z" />
<glyph unicode="w" horiz-adv-x="1345" d="M41 948l129 33l182 -784h2l240 757h135l240 -757h2l186 757h131l-260 -954h-121l-250 762h-2l-252 -762h-122z" />
<glyph unicode="x" horiz-adv-x="845" d="M20 0l332 500l-282 424l108 61l246 -375h2l217 344h139l-295 -444l318 -479l-113 -62l-276 428h-2l-254 -397h-140z" />
<glyph unicode="y" horiz-adv-x="866" d="M-61 -326q184 39 285.5 140.5t154.5 251.5l-346 880l131 35l278 -731h2l254 704h131l-325 -880q-78 -211 -192.5 -332t-348.5 -172z" />
<glyph unicode="z" horiz-adv-x="847" d="M102 0v92l486 752v2h-457v108h617v-92l-486 -749v-2h508v-111h-668z" />
<glyph unicode="{" horiz-adv-x="507" d="M82 481v88q51 0 90 22.5t39 72.5v563q0 133 58.5 192.5t168.5 79.5l29 -94q-131 -27 -131 -160v-551q0 -125 -100 -166v-2q100 -41 100 -170v-551q0 -133 131 -159l-29 -95q-111 20 -169 80t-58 193v563q0 49 -39 71.5t-90 22.5z" />
<glyph unicode="|" horiz-adv-x="497" d="M186 -420v1890h125v-1890h-125z" />
<glyph unicode="}" horiz-adv-x="507" d="M41 -354q131 27 131 159v551q0 125 100 166v2q-100 41 -100 170v551q0 133 -131 160l29 94q111 -20 169 -79.5t58 -192.5v-563q0 -49 39 -72t90 -23v-88q-51 0 -90 -22.5t-39 -71.5v-563q0 -133 -58.5 -192.5t-168.5 -80.5z" />
<glyph unicode="~" d="M49 592q109 119 250 119q59 0 179 -53.5t173 -53.5q70 0 158 82l68 -80q-106 -119 -250 -119q-59 0 -179 53.5t-176 53.5q-70 0 -157 -82z" />
<glyph unicode="&#xa1;" horiz-adv-x="462" d="M111 862q0 45 29.5 75t72.5 30t73.5 -30t30.5 -75t-30.5 -74.5t-73.5 -29.5t-72.5 29.5t-29.5 74.5zM133 -279l27 906h108l27 -906h-162z" />
<glyph unicode="&#xa2;" horiz-adv-x="837" d="M106 463q0 221 102.5 350t264.5 158v133h119v-127q92 -6 182 -39l-43 -121q-100 39 -184 39q-145 0 -227 -99.5t-82 -262.5q0 -403 309 -404q68 0 170 47l47 -106q-70 -35 -172 -49v-146h-119v144q-178 14 -272.5 143t-94.5 340z" />
<glyph unicode="&#xa3;" horiz-adv-x="829" d="M104 524v111h136q-61 188 -62 291q0 152 91 235.5t247 83.5q127 0 244 -47l-49 -115q-113 49 -191 50q-213 0 -213 -203q0 -92 64 -295h305v-111h-273q31 -88 31 -170q0 -109 -98 -239v-2h430v-113h-596v74q88 96 113 143q27 57 26 123q0 63 -35 184h-170z" />
<glyph unicode="&#xa4;" horiz-adv-x="1005" d="M49 418v117h135q-4 66 -4 104q0 37 2 53h-133v117h150q47 211 196.5 327.5t343.5 116.5q94 0 189 -26l-35 -117q-74 23 -158 23q-133 0 -244.5 -81t-152.5 -243h487v-117h-503q0 -8 -1.5 -24.5t-1.5 -24.5q0 -39 5 -108h501v-117h-485q72 -317 414 -318q59 0 137 25 l31 -113q-102 -33 -207 -32q-436 0 -516 438h-150z" />
<glyph unicode="&#xa5;" horiz-adv-x="923" d="M12 1210l121 60l324 -608h2l311 571h141l-370 -674h286v-102h-305v-457h-135v457h-307v102h282z" />
<glyph unicode="&#xa6;" horiz-adv-x="497" d="M186 287h125v-707h-125v707zM186 764v706h125v-706h-125z" />
<glyph unicode="&#xa7;" horiz-adv-x="782" d="M129 641q0 113 94 207q-90 66 -90 182q0 104 79 167t196 63q121 0 241 -43l-41 -111q-115 47 -184 47q-78 0 -124 -30.5t-46 -90.5q0 -72 94 -117l176 -81q29 -14 44.5 -23.5t47 -35t47 -66.5t15.5 -93q0 -98 -92 -210q88 -68 88 -170q0 -115 -80 -189t-207 -74 q-147 0 -246 43l41 111q104 -49 189 -49q80 0 128 37t48 104q0 84 -94 127l-170 78q-29 14 -44.5 23.5t-47 35t-47 66.5t-15.5 92zM246 653q0 -80 96 -125l166 -75q53 76 53 151q0 37 -19.5 64.5t-36 38t-42.5 22.5l-160 76q-57 -78 -57 -152z" />
<glyph unicode="&#xa8;" horiz-adv-x="1013" d="M254 1188q0 41 27.5 67.5t66.5 26.5t65.5 -26.5t26.5 -67.5t-26.5 -66.5t-65.5 -25.5t-66.5 25.5t-27.5 66.5zM573 1188q0 41 28 67.5t67 26.5t66.5 -26.5t27.5 -67.5t-27.5 -66.5t-66.5 -25.5t-67 25.5t-28 66.5z" />
<glyph unicode="&#xa9;" horiz-adv-x="1468" d="M98 616q0 281 175.5 460t459.5 179q291 0 464 -177t173 -462q0 -281 -176 -460t-461 -179q-291 0 -463 177t-172 462zM205 616q0 -236 146.5 -386t381.5 -150q246 0 387.5 147.5t141.5 388.5q0 236 -146.5 386.5t-382.5 150.5q-246 0 -387 -147.5t-141 -389.5zM389 618 q0 184 101.5 291t263.5 107q106 0 204 -41l-38 -101q-80 35 -170 35q-100 0 -171 -71.5t-71 -194.5q0 -145 58.5 -218t187.5 -73q51 0 166 45l41 -98q-113 -55 -246 -55q-145 0 -235.5 99t-90.5 275z" />
<glyph unicode="&#xaa;" horiz-adv-x="692" d="M115 369v104h465v-104h-465zM115 756q0 82 58 126t157 54l110 10v58q0 145 -129 145q-61 0 -127 -37l-41 80q82 57 195 57q96 0 153.5 -53t57.5 -145v-295l18 -140l-108 -16l-8 72h-2q-63 -78 -164 -78q-80 0 -125 44t-45 118zM221 768q0 -39 23.5 -61.5t62.5 -22.5 q37 0 70 14.5t49 26.5l14 14v135l-96 -12q-123 -16 -123 -94z" />
<glyph unicode="&#xab;" horiz-adv-x="790" d="M86 629l231 346l93 -53l-170 -293l170 -293l-93 -53zM383 629l231 346l93 -53l-170 -293l170 -293l-93 -53z" />
<glyph unicode="&#xac;" d="M55 543v112h815v-329h-114v217h-701z" />
<glyph unicode="&#xad;" horiz-adv-x="636" d="M92 539v114h453v-114h-453z" />
<glyph unicode="&#xae;" horiz-adv-x="1468" d="M98 616q0 281 175.5 460t459.5 179q291 0 464 -177t173 -462q0 -281 -176 -460t-461 -179q-291 0 -463 177t-172 462zM205 616q0 -236 146.5 -386t381.5 -150q246 0 387.5 147.5t141.5 388.5q0 236 -146.5 386.5t-382.5 150.5q-246 0 -387 -147.5t-141 -389.5zM526 262 v733q96 12 193 13q113 0 177.5 -49.5t64.5 -139.5q0 -147 -144 -213l195 -307l-101 -57l-198 329q-16 -2 -54 -2h-18v-307h-115zM641 651h16q80 0 134.5 36t54.5 112q0 121 -141 121l-64 -5v-264z" />
<glyph unicode="&#xaf;" horiz-adv-x="1013" d="M211 1120v113h592v-113h-592z" />
<glyph unicode="&#xb0;" horiz-adv-x="737" d="M104 997.5q0 112.5 76 186t188.5 73.5t188.5 -73.5t76 -186t-76 -188.5t-188.5 -76t-188.5 76t-76 188.5zM227 997.5q0 -63.5 40 -105.5t102 -42q63 0 103 42t40 105.5t-40 104.5t-103.5 41t-102.5 -41t-39 -104.5z" />
<glyph unicode="&#xb1;" d="M55 137v113h815v-113h-815zM55 700v113h351v352h112v-352h352v-113h-352v-350h-112v350h-351z" />
<glyph unicode="&#xb2;" horiz-adv-x="663" d="M78 432v76l244 299q37 45 52 64.5t31.5 59.5t16.5 83q0 57 -37 95t-100 38q-66 0 -146 -55l-51 77q106 80 227 80q100 0 162 -60.5t62 -162.5q0 -125 -105 -246l-205 -243v-2h342v-103h-493z" />
<glyph unicode="&#xb3;" horiz-adv-x="598" d="M61 457l35 102q86 -41 158 -41q61 0 98 35t37 94q0 96 -65.5 127t-200.5 31v80q139 12 188 50t49 107q0 47 -30.5 77t-81.5 30q-61 0 -133 -43l-45 78q96 66 202 65q92 0 145.5 -51t53.5 -141q0 -80 -36 -124t-101 -75v-2q80 -14 124 -68.5t44 -132.5 q0 -102 -66.5 -169.5t-183.5 -67.5q-107 0 -191 39z" />
<glyph unicode="&#xb4;" horiz-adv-x="1013" d="M354 1155l344 211l64 -106l-356 -195z" />
<glyph unicode="&#xb5;" horiz-adv-x="1046" d="M176 -432v1378l129 25v-643q0 -121 50.5 -177.5t158.5 -56.5q123 0 227 101v751l129 25v-760l29 -203l-133 -24l-16 114h-2q-117 -121 -271 -121q-47 0 -90 11.5t-63 23.5l-19 11v-431z" />
<glyph unicode="&#xb6;" horiz-adv-x="1110" d="M84 903q0 139 108.5 234.5t362.5 95.5h86v-1524l-123 -24v850q-223 10 -328.5 98t-105.5 270zM772 0v1233h258v-113h-135v-1120h-123z" />
<glyph unicode="&#xb7;" horiz-adv-x="458" d="M125 596q0 43 30.5 73.5t73.5 30.5t74 -30.5t31 -73.5t-31 -73.5t-74 -30.5t-73.5 30.5t-30.5 73.5z" />
<glyph unicode="&#xb8;" horiz-adv-x="1013" d="M377 -104q51 33 131 32q55 0 91 -37.5t36 -99.5q0 -137 -168 -231l-35 -17l-47 82q16 8 38.5 22.5t60.5 50.5t38 64q0 66 -63 66l-53 -10z" />
<glyph unicode="&#xb9;" horiz-adv-x="468" d="M57 1210l258 35v-813h-112v703l-131 -13z" />
<glyph unicode="&#xba;" horiz-adv-x="765" d="M115 924q0 143 69.5 234t198.5 91q266 0 266 -325q0 -143 -68.5 -234.5t-197.5 -91.5q-268 0 -268 326zM119 369v104h528v-104h-528zM227 928q0 -236 156 -236t156 230q0 233 -156 233t-156 -227z" />
<glyph unicode="&#xbb;" horiz-adv-x="790" d="M84 336l170 293l-170 293l92 53l232 -346l-232 -346zM381 336l172 293l-172 293l94 53l230 -346l-230 -346z" />
<glyph unicode="&#xbc;" horiz-adv-x="1468" d="M57 1210l258 35v-813h-112v703l-131 -13zM289 16l661 1252l105 -54l-662 -1251zM842 242v90l327 469h109v-463h133v-96h-133v-242h-109v242h-327zM956 338h213v313h-2z" />
<glyph unicode="&#xbd;" horiz-adv-x="1548" d="M57 1210l258 35v-813h-112v703l-131 -13zM289 16l661 1252l105 -54l-662 -1251zM963 0v76l243 299q37 45 52.5 64.5t32 59.5t16.5 83q0 57 -37 95t-101 38q-66 0 -145 -56l-51 78q106 80 227 80q100 0 161.5 -60.5t61.5 -162.5q0 -123 -104 -246l-205 -244v-2h342v-102 h-493z" />
<glyph unicode="&#xbe;" horiz-adv-x="1585" d="M61 457l35 102q86 -41 158 -41q61 0 98 35t37 94q0 96 -65.5 127t-200.5 31v80q139 12 188 50t49 107q0 47 -30.5 77t-81.5 30q-61 0 -133 -43l-45 78q96 66 202 65q92 0 145.5 -51t53.5 -141q0 -80 -36 -124t-101 -75v-2q80 -14 124 -68.5t44 -132.5 q0 -102 -66.5 -169.5t-183.5 -67.5q-107 0 -191 39zM406 16l661 1252l104 -54l-661 -1251zM958 242v90l328 469h109v-463h133v-96h-133v-242h-109v242h-328zM1073 338h213v313h-2z" />
<glyph unicode="&#xbf;" horiz-adv-x="727" d="M35 12q0 86 41 148.5t98 97.5t114.5 64.5t98.5 68.5t41 90q0 31 -10 61.5t-21 47.5l-10 14l105 47q63 -86 63 -188q0 -70 -40 -121t-95 -81t-111.5 -58.5t-96.5 -72.5t-40 -103q0 -100 59.5 -155.5t159.5 -55.5q106 0 223 84l58 -88q-135 -115 -303 -115 q-147 0 -240.5 84t-93.5 231zM330 862q0 45 29.5 75t72.5 30t74 -30t31 -75t-31 -74.5t-74 -29.5t-72.5 29.5t-29.5 74.5z" />
<glyph unicode="&#xc0;" horiz-adv-x="1071" d="M47 0l434 1233h140l405 -1217l-135 -39l-141 443h-420l-135 -420h-148zM285 1526l61 106l346 -211l-53 -90zM362 522h355l-172 561h-2z" />
<glyph unicode="&#xc1;" horiz-adv-x="1071" d="M47 0l434 1233h140l405 -1217l-135 -39l-141 443h-420l-135 -420h-148zM362 522h355l-172 561h-2zM383 1421l344 211l64 -106l-357 -195z" />
<glyph unicode="&#xc2;" horiz-adv-x="1071" d="M47 0l434 1233h140l405 -1217l-135 -39l-141 443h-420l-135 -420h-148zM260 1417l277 207l276 -207l-59 -86l-217 152l-218 -152zM362 522h355l-172 561h-2z" />
<glyph unicode="&#xc3;" horiz-adv-x="1071" d="M47 0l434 1233h140l405 -1217l-135 -39l-141 443h-420l-135 -420h-148zM264 1434q6 12 18.5 30.5t59.5 48t107 29.5q35 0 102 -29.5t90 -29.5q31 0 56.5 14t35.5 29l10 14l64 -59q-6 -12 -17.5 -30.5t-58.5 -49.5t-106 -31q-35 0 -102.5 31t-92.5 31q-66 0 -100 -60z M362 522h355l-172 561h-2z" />
<glyph unicode="&#xc4;" horiz-adv-x="1071" d="M47 0l434 1233h140l405 -1217l-135 -39l-141 443h-420l-135 -420h-148zM283 1454q0 41 27.5 67.5t66.5 26.5t65.5 -26.5t26.5 -67.5t-26.5 -66.5t-65.5 -25.5t-66.5 25.5t-27.5 66.5zM362 522h355l-172 561h-2zM602 1454q0 41 27.5 67.5t66.5 26.5t67 -26.5t28 -67.5 t-28 -66.5t-67 -25.5t-66.5 25.5t-27.5 66.5z" />
<glyph unicode="&#xc5;" horiz-adv-x="1071" d="M47 0l434 1233h140l405 -1217l-135 -39l-141 443h-420l-135 -420h-148zM362 522h355l-172 561h-2zM365 1501.5q0 71.5 49 120.5t122.5 49t123 -49t49.5 -120.5t-49.5 -121t-123 -49.5t-122.5 49.5t-49 121zM453 1501q0 -37 23.5 -61.5t60 -24.5t60.5 24.5t24 61.5 t-24 61.5t-60.5 24.5t-60 -24.5t-23.5 -61.5z" />
<glyph unicode="&#xc6;" horiz-adv-x="1538" d="M0 0l815 1233h623v-117h-461v-418h418v-116h-418v-465h479v-117h-608v420h-422l-264 -420h-162zM492 522h356v568z" />
<glyph unicode="&#xc7;" horiz-adv-x="1052" d="M106 588q0 317 163 492t415 175q172 0 315 -61l-53 -123q-137 61 -266 62q-180 0 -307 -134.5t-127 -363.5q0 -272 106.5 -404.5t343.5 -132.5q100 0 262 70l46 -111q-156 -80 -373 -80q-231 0 -378 157t-147 454zM479 -104q51 33 131 32q55 0 91 -37.5t36 -99.5 q0 -137 -168 -231l-34 -17l-48 82q16 8 39 22.5t61 50.5t38 64q0 66 -64 66l-53 -10z" />
<glyph unicode="&#xc8;" horiz-adv-x="876" d="M180 0v1233h596v-117h-461v-418h418v-116h-418v-465h480v-117h-615zM221 1526l62 106l346 -211l-54 -90z" />
<glyph unicode="&#xc9;" horiz-adv-x="876" d="M180 0v1233h596v-117h-461v-418h418v-116h-418v-465h480v-117h-615zM319 1421l345 211l63 -106l-356 -195z" />
<glyph unicode="&#xca;" horiz-adv-x="876" d="M180 0v1233h596v-117h-461v-418h418v-116h-418v-465h480v-117h-615zM197 1417l276 207l277 -207l-60 -86l-217 152l-217 -152z" />
<glyph unicode="&#xcb;" horiz-adv-x="876" d="M180 0v1233h596v-117h-461v-418h418v-116h-418v-465h480v-117h-615zM219 1454q0 41 27.5 67.5t66.5 26.5t66 -26.5t27 -67.5t-27 -66.5t-66 -25.5t-66.5 25.5t-27.5 66.5zM539 1454q0 41 27.5 67.5t66.5 26.5t66.5 -26.5t27.5 -67.5t-27.5 -66.5t-66.5 -25.5t-66.5 25.5 t-27.5 66.5z" />
<glyph unicode="&#xcc;" horiz-adv-x="495" d="M-2 1526l61 106l347 -211l-54 -90zM180 0v1233h135v-1233h-135z" />
<glyph unicode="&#xcd;" horiz-adv-x="495" d="M96 1421l344 211l64 -106l-357 -195zM180 0v1233h135v-1233h-135z" />
<glyph unicode="&#xce;" horiz-adv-x="495" d="M-27 1417l277 207l276 -207l-59 -86l-217 152l-217 -152zM180 0v1233h135v-1233h-135z" />
<glyph unicode="&#xcf;" horiz-adv-x="495" d="M-4 1454q0 41 27.5 67.5t66.5 26.5t65.5 -26.5t26.5 -67.5t-26.5 -66.5t-65.5 -25.5t-66.5 25.5t-27.5 66.5zM180 0v1233h135v-1233h-135zM315 1454q0 41 28 67.5t67 26.5t66.5 -26.5t27.5 -67.5t-27.5 -66.5t-66.5 -25.5t-67 25.5t-28 66.5z" />
<glyph unicode="&#xd0;" horiz-adv-x="1288" d="M82 639v106h154v480q166 20 339 20q285 0 446 -146.5t161 -404.5q0 -336 -184.5 -515t-516.5 -179h-245v639h-154zM371 123h135q242 0 387 142.5t145 404.5q0 223 -137 340.5t-362 117.5l-168 -6v-377h170v-106h-170v-516z" />
<glyph unicode="&#xd1;" horiz-adv-x="1239" d="M180 0v1233h164l594 -1022h2l-10 1022h129v-1223l-148 -26l-610 1056h-2l10 -1040h-129zM348 1434q6 12 18.5 30.5t59.5 48t106 29.5q37 0 102.5 -29.5t90.5 -29.5q31 0 56.5 14t35.5 29l10 14l64 -59q-6 -12 -17.5 -30.5t-58.5 -49.5t-106 -31q-37 0 -104.5 31t-90.5 31 q-66 0 -100 -60z" />
<glyph unicode="&#xd2;" horiz-adv-x="1314" d="M106 616q0 129 31 240t93.5 202t173 144t255.5 53q150 0 259.5 -52t171 -143t90 -201.5t28.5 -242.5q0 -129 -29.5 -239.5t-92 -201.5t-172 -144.5t-255.5 -53.5q-150 0 -259 52.5t-171.5 143.5t-92.5 201.5t-30 241.5zM254 616q0 -246 100.5 -384t304.5 -138 q199 0 301.5 141.5t102.5 380.5q0 246 -99.5 384.5t-304.5 138.5q-199 0 -302 -141.5t-103 -381.5zM408 1526l61 106l346 -211l-53 -90z" />
<glyph unicode="&#xd3;" horiz-adv-x="1314" d="M106 616q0 129 31 240t93.5 202t173 144t255.5 53q150 0 259.5 -52t171 -143t90 -201.5t28.5 -242.5q0 -129 -29.5 -239.5t-92 -201.5t-172 -144.5t-255.5 -53.5q-150 0 -259 52.5t-171.5 143.5t-92.5 201.5t-30 241.5zM254 616q0 -246 100.5 -384t304.5 -138 q199 0 301.5 141.5t102.5 380.5q0 246 -99.5 384.5t-304.5 138.5q-199 0 -302 -141.5t-103 -381.5zM506 1421l344 211l63 -106l-356 -195z" />
<glyph unicode="&#xd4;" horiz-adv-x="1314" d="M106 616q0 129 31 240t93.5 202t173 144t255.5 53q150 0 259.5 -52t171 -143t90 -201.5t28.5 -242.5q0 -129 -29.5 -239.5t-92 -201.5t-172 -144.5t-255.5 -53.5q-150 0 -259 52.5t-171.5 143.5t-92.5 201.5t-30 241.5zM254 616q0 -246 100.5 -384t304.5 -138 q199 0 301.5 141.5t102.5 380.5q0 246 -99.5 384.5t-304.5 138.5q-199 0 -302 -141.5t-103 -381.5zM383 1417l276 207l277 -207l-59 -86l-218 152l-217 -152z" />
<glyph unicode="&#xd5;" horiz-adv-x="1314" d="M106 616q0 129 31 240t93.5 202t173 144t255.5 53q150 0 259.5 -52t171 -143t90 -201.5t28.5 -242.5q0 -129 -29.5 -239.5t-92 -201.5t-172 -144.5t-255.5 -53.5q-150 0 -259 52.5t-171.5 143.5t-92.5 201.5t-30 241.5zM254 616q0 -246 100.5 -384t304.5 -138 q199 0 301.5 141.5t102.5 380.5q0 246 -99.5 384.5t-304.5 138.5q-199 0 -302 -141.5t-103 -381.5zM387 1434q6 12 18.5 30.5t59.5 48t106 29.5q35 0 102.5 -29.5t90.5 -29.5q31 0 56.5 14t35.5 29l10 14l64 -59q-6 -12 -17.5 -30.5t-58.5 -49.5t-106 -31q-35 0 -102.5 31 t-92.5 31q-66 0 -100 -60z" />
<glyph unicode="&#xd6;" horiz-adv-x="1314" d="M106 616q0 129 31 240t93.5 202t173 144t255.5 53q150 0 259.5 -52t171 -143t90 -201.5t28.5 -242.5q0 -129 -29.5 -239.5t-92 -201.5t-172 -144.5t-255.5 -53.5q-150 0 -259 52.5t-171.5 143.5t-92.5 201.5t-30 241.5zM254 616q0 -246 100.5 -384t304.5 -138 q199 0 301.5 141.5t102.5 380.5q0 246 -99.5 384.5t-304.5 138.5q-199 0 -302 -141.5t-103 -381.5zM406 1454q0 41 27.5 67.5t66.5 26.5t65.5 -26.5t26.5 -67.5t-26.5 -66.5t-65.5 -25.5t-66.5 25.5t-27.5 66.5zM725 1454q0 41 27.5 67.5t66.5 26.5t66.5 -26.5t27.5 -67.5 t-27.5 -66.5t-66.5 -25.5t-66.5 25.5t-27.5 66.5z" />
<glyph unicode="&#xd7;" d="M135 350l248 250l-248 248l80 80l248 -250l248 250l80 -80l-248 -248l248 -250l-80 -80l-248 250l-248 -250z" />
<glyph unicode="&#xd8;" horiz-adv-x="1314" d="M106 616q0 129 31 240t93.5 202t173 144t255.5 53q127 0 224 -36l69 145l90 -43l-69 -150q236 -154 235 -555q0 -129 -29.5 -239.5t-92 -201.5t-172 -144.5t-255.5 -53.5q-125 0 -225 39l-67 -147l-93 43l70 149q-238 156 -238 555zM254 616q0 -303 145 -434l432 924 q-72 33 -172 33q-199 0 -302 -141.5t-103 -381.5zM485 127q72 -33 174 -33q199 0 301.5 141.5t102.5 380.5q0 303 -145 435z" />
<glyph unicode="&#xd9;" horiz-adv-x="1265" d="M176 500v733h141v-746q0 -385 306 -385q160 0 249 96.5t89 288.5v746h129v-737q0 -256 -128 -388.5t-331 -132.5q-455 1 -455 525zM383 1526l61 106l347 -211l-54 -90z" />
<glyph unicode="&#xda;" horiz-adv-x="1265" d="M176 500v733h141v-746q0 -385 306 -385q160 0 249 96.5t89 288.5v746h129v-737q0 -256 -128 -388.5t-331 -132.5q-455 1 -455 525zM481 1421l344 211l64 -106l-357 -195z" />
<glyph unicode="&#xdb;" horiz-adv-x="1265" d="M176 500v733h141v-746q0 -385 306 -385q160 0 249 96.5t89 288.5v746h129v-737q0 -256 -128 -388.5t-331 -132.5q-455 1 -455 525zM358 1417l277 207l276 -207l-59 -86l-217 152l-217 -152z" />
<glyph unicode="&#xdc;" horiz-adv-x="1265" d="M176 500v733h141v-746q0 -385 306 -385q160 0 249 96.5t89 288.5v746h129v-737q0 -256 -128 -388.5t-331 -132.5q-455 1 -455 525zM381 1454q0 41 27.5 67.5t66.5 26.5t65.5 -26.5t26.5 -67.5t-26.5 -66.5t-65.5 -25.5t-66.5 25.5t-27.5 66.5zM700 1454q0 41 28 67.5 t67 26.5t66.5 -26.5t27.5 -67.5t-27.5 -66.5t-66.5 -25.5t-67 25.5t-28 66.5z" />
<glyph unicode="&#xdd;" horiz-adv-x="923" d="M12 1210l121 60l324 -608h2l311 571h141l-389 -707v-526h-135v514zM309 1421l344 211l64 -106l-357 -195z" />
<glyph unicode="&#xde;" d="M180 0v1233h135v-193q90 8 174 9q168 0 271.5 -82t103.5 -226q0 -209 -146.5 -318.5t-367.5 -109.5h-35v-313h-135zM315 422h31q164 0 273.5 72.5t109.5 216.5q0 119 -73.5 177t-204.5 58l-136 -10v-514z" />
<glyph unicode="&#xdf;" horiz-adv-x="1126" d="M49 844v90l139 24v117q0 150 87 239t227 89q141 0 219 -78t78 -213q0 -74 -28 -129t-59.5 -83t-59 -73t-27.5 -100q0 -33 21.5 -60.5t36.5 -36.5l56 -34l144 -82q176 -100 176 -250q0 -129 -83 -206.5t-237 -77.5q-166 0 -272 49l47 118q121 -55 215 -55q92 0 144.5 38 t52.5 112q0 94 -111 157l-139 78q-49 29 -67.5 41t-53.5 42t-48 68t-13 87q0 72 27.5 127t61 83.5t61.5 76t28 104.5q0 88 -48.5 139t-131.5 51q-80 0 -127.5 -55t-47.5 -137v-1104h-129v844h-139z" />
<glyph unicode="&#xe0;" d="M106 221q0 236 328 271l187 20v94q0 121 -46.5 184.5t-164.5 63.5q-78 0 -205 -55l-47 100q135 78 282 78q137 0 223.5 -79t86.5 -214v-473l28 -203l-133 -24l-16 114h-2q-131 -123 -265 -123q-121 0 -188.5 66.5t-67.5 179.5zM213 1260l61 106l347 -211l-54 -90z M238 236q0 -66 38.5 -105t104.5 -39q121 0 240 103v219l-172 -23q-106 -14 -158.5 -49.5t-52.5 -105.5z" />
<glyph unicode="&#xe1;" d="M106 221q0 236 328 271l187 20v94q0 121 -46.5 184.5t-164.5 63.5q-78 0 -205 -55l-47 100q135 78 282 78q137 0 223.5 -79t86.5 -214v-473l28 -203l-133 -24l-16 114h-2q-131 -123 -265 -123q-121 0 -188.5 66.5t-67.5 179.5zM238 236q0 -66 38.5 -105t104.5 -39 q121 0 240 103v219l-172 -23q-106 -14 -158.5 -49.5t-52.5 -105.5zM311 1155l344 211l64 -106l-357 -195z" />
<glyph unicode="&#xe2;" d="M106 221q0 236 328 271l187 20v94q0 121 -46.5 184.5t-164.5 63.5q-78 0 -205 -55l-47 100q135 78 282 78q137 0 223.5 -79t86.5 -214v-473l28 -203l-133 -24l-16 114h-2q-131 -123 -265 -123q-121 0 -188.5 66.5t-67.5 179.5zM188 1151l277 207l276 -207l-59 -86 l-217 152l-217 -152zM238 236q0 -66 38.5 -105t104.5 -39q121 0 240 103v219l-172 -23q-106 -14 -158.5 -49.5t-52.5 -105.5z" />
<glyph unicode="&#xe3;" d="M106 221q0 236 328 271l187 20v94q0 121 -46.5 184.5t-164.5 63.5q-78 0 -205 -55l-47 100q135 78 282 78q137 0 223.5 -79t86.5 -214v-473l28 -203l-133 -24l-16 114h-2q-131 -123 -265 -123q-121 0 -188.5 66.5t-67.5 179.5zM193 1167q6 12 18 31t59 48.5t107 29.5 q37 0 102.5 -29.5t89.5 -29.5q31 0 56.5 14t36.5 29l10 14l63 -60q-6 -12 -17 -30.5t-58.5 -49t-106.5 -30.5q-37 0 -104.5 30.5t-90.5 30.5q-66 0 -100 -59zM238 236q0 -66 38.5 -105t104.5 -39q121 0 240 103v219l-172 -23q-106 -14 -158.5 -49.5t-52.5 -105.5z" />
<glyph unicode="&#xe4;" d="M106 221q0 236 328 271l187 20v94q0 121 -46.5 184.5t-164.5 63.5q-78 0 -205 -55l-47 100q135 78 282 78q137 0 223.5 -79t86.5 -214v-473l28 -203l-133 -24l-16 114h-2q-131 -123 -265 -123q-121 0 -188.5 66.5t-67.5 179.5zM211 1188q0 41 27.5 67.5t66.5 26.5 t65.5 -26.5t26.5 -67.5t-26.5 -66.5t-65.5 -25.5t-66.5 25.5t-27.5 66.5zM238 236q0 -66 38.5 -105t104.5 -39q121 0 240 103v219l-172 -23q-106 -14 -158.5 -49.5t-52.5 -105.5zM530 1188q0 41 28 67.5t67 26.5t66.5 -26.5t27.5 -67.5t-27.5 -66.5t-66.5 -25.5t-67 25.5 t-28 66.5z" />
<glyph unicode="&#xe5;" d="M106 221q0 236 328 271l187 20v94q0 121 -46.5 184.5t-164.5 63.5q-78 0 -205 -55l-47 100q135 78 282 78q137 0 223.5 -79t86.5 -214v-473l28 -203l-133 -24l-16 114h-2q-131 -123 -265 -123q-121 0 -188.5 66.5t-67.5 179.5zM238 236q0 -66 38.5 -105t104.5 -39 q121 0 240 103v219l-172 -23q-106 -14 -158.5 -49.5t-52.5 -105.5zM293 1235q0 72 49 121t123 49t123 -49t49 -121t-49 -121t-123 -49t-123 49t-49 121zM381 1235q0 -37 23.5 -61.5t60.5 -24.5t60.5 24.5t23.5 61.5t-23.5 61.5t-60.5 24.5t-60.5 -24.5t-23.5 -61.5z" />
<glyph unicode="&#xe6;" horiz-adv-x="1417" d="M106 223q0 121 88.5 187.5t241.5 83.5l187 20v92q0 248 -217 248q-76 0 -199 -57l-51 100q139 80 288 80q94 0 163 -49t102 -131h2q111 180 301 180q158 0 234.5 -92t76.5 -252v-117h-575q0 -215 77.5 -317.5t245.5 -102.5q94 0 209 60l51 -107q-125 -72 -295 -72 q-213 0 -329 175h-2q-74 -82 -151 -128.5t-192 -46.5q-121 0 -188.5 66.5t-67.5 179.5zM238 238q0 -66 38.5 -105t104.5 -39q150 0 283 133q-33 90 -39 189l-174 -23q-109 -14 -161 -49.5t-52 -105.5zM756 618h438q0 254 -197 254q-96 0 -159.5 -68.5t-81.5 -185.5z" />
<glyph unicode="&#xe7;" horiz-adv-x="837" d="M106 463q0 250 128 382t323 132q117 0 217 -39l-43 -121q-100 39 -184 39q-145 0 -227 -99.5t-82 -262.5q0 -403 309 -404q68 0 170 47l47 -106q-109 -53 -250 -54q-197 0 -302.5 131.5t-105.5 354.5zM330 -104q51 33 131 32q55 0 91 -37.5t36 -99.5q0 -137 -168 -231 l-35 -17l-47 82q16 8 38.5 22.5t60.5 50.5t38 64q0 66 -63 66l-54 -10z" />
<glyph unicode="&#xe8;" horiz-adv-x="901" d="M106 479q0 225 104.5 361.5t283.5 136.5q158 0 235.5 -92t77.5 -252v-117h-571q0 -215 76.5 -317.5t244.5 -102.5q98 0 209 58l49 -105q-125 -72 -293 -72q-199 0 -307.5 132t-108.5 370zM201 1260l61 106l346 -211l-53 -90zM244 618h436q0 254 -195 254 q-96 0 -159.5 -68.5t-81.5 -185.5z" />
<glyph unicode="&#xe9;" horiz-adv-x="901" d="M106 479q0 225 104.5 361.5t283.5 136.5q158 0 235.5 -92t77.5 -252v-117h-571q0 -215 76.5 -317.5t244.5 -102.5q98 0 209 58l49 -105q-125 -72 -293 -72q-199 0 -307.5 132t-108.5 370zM244 618h436q0 254 -195 254q-96 0 -159.5 -68.5t-81.5 -185.5zM299 1155l344 211 l64 -106l-357 -195z" />
<glyph unicode="&#xea;" horiz-adv-x="901" d="M106 479q0 225 104.5 361.5t283.5 136.5q158 0 235.5 -92t77.5 -252v-117h-571q0 -215 76.5 -317.5t244.5 -102.5q98 0 209 58l49 -105q-125 -72 -293 -72q-199 0 -307.5 132t-108.5 370zM176 1151l277 207l276 -207l-59 -86l-217 152l-217 -152zM244 618h436 q0 254 -195 254q-96 0 -159.5 -68.5t-81.5 -185.5z" />
<glyph unicode="&#xeb;" horiz-adv-x="901" d="M106 479q0 225 104.5 361.5t283.5 136.5q158 0 235.5 -92t77.5 -252v-117h-571q0 -215 76.5 -317.5t244.5 -102.5q98 0 209 58l49 -105q-125 -72 -293 -72q-199 0 -307.5 132t-108.5 370zM199 1188q0 41 27.5 67.5t66.5 26.5t65.5 -26.5t26.5 -67.5t-26.5 -66.5 t-65.5 -25.5t-66.5 25.5t-27.5 66.5zM244 618h436q0 254 -195 254q-96 0 -159.5 -68.5t-81.5 -185.5zM518 1188q0 41 27.5 67.5t66.5 26.5t67 -26.5t28 -67.5t-28 -66.5t-67 -25.5t-66.5 25.5t-27.5 66.5z" />
<glyph unicode="&#xec;" horiz-adv-x="485" d="M-8 1260l61 106l346 -211l-53 -90zM152 946l157 25v-971h-129v743z" />
<glyph unicode="&#xed;" horiz-adv-x="485" d="M90 1155l344 211l64 -106l-357 -195zM152 946l157 25v-971h-129v743z" />
<glyph unicode="&#xee;" horiz-adv-x="485" d="M-33 1151l277 207l276 -207l-59 -86l-217 152l-217 -152zM152 946l157 25v-971h-129v743z" />
<glyph unicode="&#xef;" horiz-adv-x="485" d="M-10 1188q0 41 27.5 67.5t66.5 26.5t65.5 -26.5t26.5 -67.5t-26.5 -66.5t-65.5 -25.5t-66.5 25.5t-27.5 66.5zM152 946l157 25v-971h-129v743zM309 1188q0 41 28 67.5t66.5 26.5t66.5 -26.5t28 -67.5t-28 -66.5t-66.5 -25.5t-66.5 25.5t-28 66.5z" />
<glyph unicode="&#xf0;" horiz-adv-x="1007" d="M106 446q0 260 110 392.5t304 132.5l144 -23l2 2q-37 98 -150 203l-133 -111l-68 82l115 97q-88 55 -221 84l24 102q176 -27 293 -104l140 116l69 -82l-125 -104q256 -250 256 -721q0 -535 -395 -535q-160 0 -262.5 127t-102.5 342zM240 496q0 -406 258 -406 q117 0 178 102.5t61 276.5q0 92 -8 181t-16 132l-11 43q-53 37 -196 37q-129 0 -197.5 -100t-68.5 -266z" />
<glyph unicode="&#xf1;" horiz-adv-x="1042" d="M147 946l134 25l16 -115h2q125 121 285 121q125 0 205.5 -79t80.5 -218v-680h-129v625q0 236 -200 235q-121 0 -236 -100v-760h-129v743zM250 1167q6 12 18.5 31t59.5 48.5t106 29.5q37 0 102.5 -29.5t90.5 -29.5q31 0 56.5 14t35.5 29l10 14l64 -60q-6 -12 -17.5 -30.5 t-58.5 -49t-107 -30.5q-37 0 -104.5 30.5t-89.5 30.5q-66 0 -101 -59z" />
<glyph unicode="&#xf2;" horiz-adv-x="1013" d="M106 477q0 219 102.5 359.5t299.5 140.5q399 0 399 -500q0 -219 -102.5 -359.5t-296.5 -140.5q-402 0 -402 500zM244 483q0 -391 264 -391q262 0 262 379q0 391 -262 391q-264 0 -264 -379zM256 1260l61 106l347 -211l-54 -90z" />
<glyph unicode="&#xf3;" horiz-adv-x="1013" d="M106 477q0 219 102.5 359.5t299.5 140.5q399 0 399 -500q0 -219 -102.5 -359.5t-296.5 -140.5q-402 0 -402 500zM244 483q0 -391 264 -391q262 0 262 379q0 391 -262 391q-264 0 -264 -379zM354 1155l344 211l64 -106l-356 -195z" />
<glyph unicode="&#xf4;" horiz-adv-x="1013" d="M106 477q0 219 102.5 359.5t299.5 140.5q399 0 399 -500q0 -219 -102.5 -359.5t-296.5 -140.5q-402 0 -402 500zM231 1151l277 207l276 -207l-59 -86l-217 152l-217 -152zM244 483q0 -391 264 -391q262 0 262 379q0 391 -262 391q-264 0 -264 -379z" />
<glyph unicode="&#xf5;" horiz-adv-x="1013" d="M106 477q0 219 102.5 359.5t299.5 140.5q399 0 399 -500q0 -219 -102.5 -359.5t-296.5 -140.5q-402 0 -402 500zM236 1167q6 12 18 31t59 48.5t107 29.5q35 0 102.5 -29.5t89.5 -29.5q31 0 56.5 14t36.5 29l10 14l63 -60q-6 -12 -17 -30.5t-58.5 -49t-106.5 -30.5 q-35 0 -102.5 30.5t-92.5 30.5q-66 0 -100 -59zM244 483q0 -391 264 -391q262 0 262 379q0 391 -262 391q-264 0 -264 -379z" />
<glyph unicode="&#xf6;" horiz-adv-x="1013" d="M106 477q0 219 102.5 359.5t299.5 140.5q399 0 399 -500q0 -219 -102.5 -359.5t-296.5 -140.5q-402 0 -402 500zM244 483q0 -391 264 -391q262 0 262 379q0 391 -262 391q-264 0 -264 -379zM254 1188q0 41 27.5 67.5t66.5 26.5t65.5 -26.5t26.5 -67.5t-26.5 -66.5 t-65.5 -25.5t-66.5 25.5t-27.5 66.5zM573 1188q0 41 28 67.5t67 26.5t66.5 -26.5t27.5 -67.5t-27.5 -66.5t-66.5 -25.5t-67 25.5t-28 66.5z" />
<glyph unicode="&#xf7;" d="M55 543v112h815v-112h-815zM373 350q0 39 25.5 63.5t62.5 24.5t63.5 -24.5t26.5 -63.5t-26.5 -64.5t-63.5 -25.5t-62.5 25.5t-25.5 64.5zM373 848q0 39 25.5 64.5t62.5 25.5t63.5 -25.5t26.5 -64.5t-26.5 -63.5t-63.5 -24.5t-62.5 24.5t-25.5 63.5z" />
<glyph unicode="&#xf8;" horiz-adv-x="1013" d="M106 477q0 219 103.5 360.5t298.5 141.5q90 0 164 -29l69 150l93 -41l-74 -158q147 -123 147 -424q0 -219 -102.5 -360.5t-296.5 -141.5q-94 0 -168 29l-68 -147l-92 43l74 155q-148 123 -148 422zM244 483q0 -199 69 -299l308 656q-49 25 -113 24q-264 0 -264 -381z M393 115q49 -25 115 -25q262 0 262 381q0 199 -72 301z" />
<glyph unicode="&#xf9;" horiz-adv-x="1046" d="M147 946l158 25v-641q0 -236 201 -236q121 0 235 101v548l-28 203l157 25v-760l29 -203l-133 -24l-16 114h-2q-125 -121 -285 -121q-125 0 -206 79t-81 218v469zM272 1260l62 106l346 -211l-53 -90z" />
<glyph unicode="&#xfa;" horiz-adv-x="1046" d="M147 946l158 25v-641q0 -236 201 -236q121 0 235 101v548l-28 203l157 25v-760l29 -203l-133 -24l-16 114h-2q-125 -121 -285 -121q-125 0 -206 79t-81 218v469zM371 1155l344 211l63 -106l-356 -195z" />
<glyph unicode="&#xfb;" horiz-adv-x="1046" d="M147 946l158 25v-641q0 -236 201 -236q121 0 235 101v548l-28 203l157 25v-760l29 -203l-133 -24l-16 114h-2q-125 -121 -285 -121q-125 0 -206 79t-81 218v469zM248 1151l276 207l277 -207l-60 -86l-217 152l-217 -152z" />
<glyph unicode="&#xfc;" horiz-adv-x="1046" d="M147 946l158 25v-641q0 -236 201 -236q121 0 235 101v548l-28 203l157 25v-760l29 -203l-133 -24l-16 114h-2q-125 -121 -285 -121q-125 0 -206 79t-81 218v469zM270 1188q0 41 28 67.5t66.5 26.5t65.5 -26.5t27 -67.5t-27 -66.5t-65.5 -25.5t-66.5 25.5t-28 66.5z M590 1188q0 41 27.5 67.5t66.5 26.5t66.5 -26.5t27.5 -67.5t-27.5 -66.5t-66.5 -25.5t-66.5 25.5t-27.5 66.5z" />
<glyph unicode="&#xfd;" horiz-adv-x="866" d="M-61 -326q184 39 285.5 140.5t154.5 251.5l-346 880l131 35l278 -731h2l254 704h131l-325 -880q-78 -211 -192.5 -332t-348.5 -172zM281 1155l344 211l63 -106l-356 -195z" />
<glyph unicode="&#xfe;" horiz-adv-x="1009" d="M147 1374l158 25v-510h2q10 10 29.5 24.5t85 39t137.5 24.5q168 0 256 -118t88 -331q0 -244 -107.5 -392t-336.5 -148l-154 18v-420l-129 -20v1605zM305 131q66 -31 168 -31q139 0 219 100.5t80 270.5q0 184 -56.5 283.5t-201.5 99.5q-123 0 -209 -72v-651z" />
<glyph unicode="&#xff;" horiz-adv-x="866" d="M-61 -326q184 39 285.5 140.5t154.5 251.5l-346 880l131 35l278 -731h2l254 704h131l-325 -880q-78 -211 -192.5 -332t-348.5 -172zM180 1188q0 41 28 67.5t66.5 26.5t65.5 -26.5t27 -67.5t-27 -66.5t-65.5 -25.5t-66.5 25.5t-28 66.5zM500 1188q0 41 27.5 67.5 t66.5 26.5t66.5 -26.5t27.5 -67.5t-27.5 -66.5t-66.5 -25.5t-66.5 25.5t-27.5 66.5z" />
<glyph unicode="&#x152;" horiz-adv-x="1521" d="M106 616q0 129 31 240t93.5 202t173 144t255.5 53q96 0 177 -22h585v-117h-463v-418h420v-116h-420v-465h482v-117h-609q-80 -23 -172 -23q-150 0 -259 52.5t-171.5 143.5t-92.5 201.5t-30 241.5zM254 616q0 -246 100.5 -384t304.5 -138q88 0 164 33v983q-66 29 -164 29 q-199 0 -302 -141.5t-103 -381.5z" />
<glyph unicode="&#x153;" horiz-adv-x="1562" d="M106 477q0 219 102.5 359.5t299.5 140.5q238 0 332 -211h2q106 211 315 211q158 0 234.5 -92t76.5 -252v-117h-575q0 -213 78 -316.5t248 -103.5q94 0 208 60l50 -107q-125 -72 -293 -72q-246 0 -348 220h-2q-111 -219 -326 -220q-402 0 -402 500zM244 483 q0 -391 264 -391t264 379q0 391 -264 391t-264 -379zM901 618h438q0 254 -196 254q-96 0 -160 -68.5t-82 -185.5z" />
<glyph unicode="&#x178;" horiz-adv-x="923" d="M12 1210l121 60l324 -608h2l311 571h141l-389 -707v-526h-135v514zM209 1454q0 41 27.5 67.5t66.5 26.5t65.5 -26.5t26.5 -67.5t-26.5 -66.5t-65.5 -25.5t-66.5 25.5t-27.5 66.5zM528 1454q0 41 28 67.5t67 26.5t66.5 -26.5t27.5 -67.5t-27.5 -66.5t-66.5 -25.5t-67 25.5 t-28 66.5z" />
<glyph unicode="&#x2c6;" horiz-adv-x="1013" d="M231 1151l277 207l276 -207l-59 -86l-217 152l-217 -152z" />
<glyph unicode="&#x2dc;" horiz-adv-x="1013" d="M236 1167q6 12 18 31t59 48.5t107 29.5q35 0 102.5 -29.5t89.5 -29.5q31 0 56.5 14t36.5 29l10 14l63 -60q-6 -12 -17 -30.5t-58.5 -49t-106.5 -30.5q-35 0 -102.5 30.5t-92.5 30.5q-66 0 -100 -59z" />
<glyph unicode="&#x2013;" d="M55 543v112h815v-112h-815z" />
<glyph unicode="&#x2014;" horiz-adv-x="1339" d="M55 543v112h1229v-112h-1229z" />
<glyph unicode="&#x2018;" horiz-adv-x="458" d="M125 948q0 215 170 307l39 -57q-80 -55 -92 -164q39 -4 65.5 -33.5t26.5 -68.5q0 -45 -30 -75t-73 -30q-45 0 -75.5 33t-30.5 88z" />
<glyph unicode="&#x2019;" horiz-adv-x="458" d="M125 877q82 55 94 163q-39 4 -66.5 35t-27.5 70q0 45 30.5 74.5t73.5 29.5q45 0 75 -33.5t30 -89.5q0 -213 -170 -305z" />
<glyph unicode="&#x201a;" horiz-adv-x="458" d="M125 92q0 45 29.5 75t72.5 30q45 0 76 -34t31 -89q0 -205 -170 -305l-39 55q80 57 92 164q-39 4 -65.5 34.5t-26.5 69.5z" />
<glyph unicode="&#x201c;" horiz-adv-x="768" d="M125 948q0 215 170 307l39 -57q-80 -55 -92 -164q39 -4 65.5 -33.5t26.5 -68.5q0 -45 -30 -75t-73 -30q-45 0 -75.5 33t-30.5 88zM434 948q0 215 170 307l39 -57q-80 -55 -92 -164q39 -4 65.5 -33.5t26.5 -68.5q0 -45 -29.5 -75t-72.5 -30q-45 0 -76 33t-31 88z" />
<glyph unicode="&#x201d;" horiz-adv-x="768" d="M125 877q82 55 94 163q-39 4 -66.5 35t-27.5 70q0 45 30.5 74.5t73.5 29.5q45 0 75 -33.5t30 -89.5q0 -213 -170 -305zM434 877q82 55 94 163q-39 4 -66.5 35t-27.5 70q0 45 31 74.5t74 29.5q45 0 74.5 -33.5t29.5 -89.5q0 -213 -170 -305z" />
<glyph unicode="&#x201e;" horiz-adv-x="768" d="M125 92q0 45 30.5 75t73.5 30q45 0 75 -34t30 -89q0 -213 -170 -305l-39 55q82 55 94 164q-39 4 -66.5 34.5t-27.5 69.5zM434 92q0 45 31 75t74 30q45 0 74.5 -34t29.5 -89q0 -213 -170 -305l-39 55q82 55 94 164q-39 4 -66.5 34.5t-27.5 69.5z" />
<glyph unicode="&#x2022;" horiz-adv-x="665" d="M125 598q0 90 59.5 148.5t147.5 58.5t148.5 -58.5t60.5 -148.5t-60.5 -149.5t-148.5 -59.5t-147.5 59.5t-59.5 149.5z" />
<glyph unicode="&#x2026;" horiz-adv-x="1286" d="M125 92q0 43 30.5 74t73.5 31t74 -31t31 -74t-31 -73.5t-74 -30.5t-73.5 30.5t-30.5 73.5zM539 92q0 43 30.5 74t73.5 31t74 -31t31 -74t-31 -73.5t-74 -30.5t-73.5 30.5t-30.5 73.5zM952 92q0 43 31 74t74 31t73.5 -31t30.5 -74t-30.5 -73.5t-73.5 -30.5t-74 30.5 t-31 73.5z" />
<glyph unicode="&#x2039;" horiz-adv-x="493" d="M86 629l231 346l93 -53l-170 -293l170 -293l-93 -53z" />
<glyph unicode="&#x203a;" horiz-adv-x="493" d="M84 336l170 293l-170 293l92 53l232 -346l-232 -346z" />
<glyph unicode="&#x2122;" horiz-adv-x="1583" d="M49 1133v100h533v-100h-207v-637h-121v637h-205zM676 496l43 737h119l227 -598h2l215 598h127l47 -735l-113 -6l-28 530h-2l-191 -524h-121l-198 534h-2l-23 -536h-102z" />
<glyph unicode="&#xe000;" horiz-adv-x="985" d="M0 985h985v-985h-985v985z" />
<glyph unicode="&#xfb01;" horiz-adv-x="1124" d="M49 844v90l139 24v111q0 152 87 239t229 87q45 0 110 -17l-28 -110q-49 16 -101 16q-76 0 -122 -50t-46 -142v-138h271v-108h-271v-846h-129v844h-139zM782 1198q0 43 30 72.5t73 29.5q41 0 70.5 -29.5t29.5 -72.5t-29.5 -72.5t-70.5 -29.5q-43 0 -73 29.5t-30 72.5z M791 946l157 25v-971h-129v743z" />
<glyph unicode="&#xfb02;" horiz-adv-x="1112" d="M49 844v90l139 24v111q0 152 87 239t229 87q45 0 110 -17l-28 -110q-49 16 -101 16q-76 0 -122 -50t-46 -142v-138h271v-108h-271v-846h-129v844h-139zM782 1374l158 25v-1399h-129v1171z" />
<glyph unicode="&#xfb03;" horiz-adv-x="1722" d="M1380 1198q0 43 30 72.5t73 29.5q41 0 70.5 -29.5t29.5 -72.5t-29.5 -72.5t-70.5 -29.5q-43 0 -73 29.5t-30 72.5zM1389 946l157 25v-971h-129v743zM667 844v90l139 24v111q0 152 87 239t229 87q45 0 110 -17l-28 -110q-49 16 -101 16q-76 0 -122 -50t-46 -142v-138h271 v-108h-271v-846h-129v844h-139zM49 844v90l139 24v111q0 152 87 239t229 87q45 0 110 -17l-28 -110q-49 16 -101 16q-76 0 -122 -50t-46 -142v-138h271v-108h-271v-846h-129v844h-139z" />
<glyph unicode="&#xfb04;" horiz-adv-x="1710" d="M1380 1374l158 25v-1399h-129v1171zM667 844v90l139 24v111q0 152 87 239t229 87q45 0 110 -17l-28 -110q-49 16 -101 16q-76 0 -122 -50t-46 -142v-138h271v-108h-271v-846h-129v844h-139zM49 844v90l139 24v111q0 152 87 239t229 87q45 0 110 -17l-28 -110 q-49 16 -101 16q-76 0 -122 -50t-46 -142v-138h271v-108h-271v-846h-129v844h-139z" />
</font>
</defs>
</svg>
